<svg id="Layer_1" data-name="Layer 1" xmlns="http://www.w3.org/2000/svg" viewBox="0 0 638.70968 220.96774"><defs><style>.cls-1{fill:none;stroke:#190e4f;stroke-miterlimit:10;stroke-width:2.07191px;}.cls-2{fill:#fff;}</style></defs><path class="cls-1" d="M81.917,80.38181,29.68315,95.61749,81.917,111.03383v17.41069L9.91325,105.22968V85.64221L81.917,62.97113Z"/><path class="cls-1" d="M89.92842,52.129h33.15049q15.05369,0,15.05638,13.67376v59.80873q0,13.6758-15.05638,13.67512H89.92842Zm32.184,71.82605V67.46058a4.0206,4.0206,0,0,0-.8289-2.97027,4.5775,4.5775,0,0,0-3.03906-.75943H105.813v63.95254h12.43143a4.562,4.562,0,0,0,3.03906-.75943A4.01045,4.01045,0,0,0,122.11242,123.95507Z"/><path class="cls-1" d="M161.20244,71.4668h14.64092q14.91813,0,14.91812,13.67377v24.72527H161.34v13.95029a4.26256,4.26256,0,0,0,.76011,2.97027q.75774.76078,3.10785.75943h6.354a4.56112,4.56112,0,0,0,3.03839-.75943,4.01418,4.01418,0,0,0,.8289-2.97027v-5.111h15.194v6.90635q0,13.6758-15.05571,13.67512H161.20244q-15.05774,0-15.05639-13.67512V85.14057Q146.14605,71.4668,161.20244,71.4668Zm.13758,28.316h14.36575V86.79836a4.02065,4.02065,0,0,0-.82889-2.97027,4.57755,4.57755,0,0,0-3.03907-.75943H165.208a4.5738,4.5738,0,0,0-3.03906.75943,4.02064,4.02064,0,0,0-.8289,2.97027Z"/><path class="cls-1" d="M214.38168,71.4668l8.70173,53.1789,8.7024-53.1789H247.3939l-13.951,67.81983h-20.719l-13.951-67.81983Z"/><path class="cls-2" d="M284.68786,123.402V104.75487a4.02087,4.02087,0,0,0-.82823-2.97027,4.58,4.58,0,0,0-3.03906-.75943H269.63215q-14.22818,0-14.22682-13.8127V65.80278q0-13.67376,14.91745-13.67376h15.194q14.91711,0,14.91813,13.67376V77.95769H284.412V68.01363a4.01854,4.01854,0,0,0-.8289-2.97028,4.57756,4.57756,0,0,0-3.03906-.75942h-5.24856a4.84675,4.84675,0,0,0-3.17665.75942,4.01555,4.01555,0,0,0-.8289,2.97028v17.541a4.00913,4.00913,0,0,0,.8289,2.97027,4.83061,4.83061,0,0,0,3.17665.75943h10.9119q14.50434,0,14.504,13.53618v22.79095q0,13.6758-15.05638,13.67512H270.73757q-15.05774,0-15.05639-13.67512v-12.016h15.88461V123.402a4.01421,4.01421,0,0,0,.8289,2.97027,4.83148,4.83148,0,0,0,3.17732.75943h5.24856a4.56446,4.56446,0,0,0,3.03906-.75943A4.01445,4.01445,0,0,0,284.68786,123.402Z"/><path class="cls-2" d="M308.72284,52.129h32.04573q15.05368,0,15.05639,13.67376V93.56712q0,13.67377-15.05639,13.67377H324.60744v32.04574h-15.8846Zm31.21751,39.22726V68.01363a4.01531,4.01531,0,0,0-.82957-2.97028,4.57511,4.57511,0,0,0-3.03906-.75942H324.60744V95.086h11.46428a4.55959,4.55959,0,0,0,3.03906-.75943A4.011,4.011,0,0,0,339.94035,91.35628Z"/><path class="cls-2" d="M379.721,105.30792v33.97871H363.83639V52.129h32.04574q15.05368,0,15.05639,13.67376v25.83q0,11.32668-10.08436,13.25965l14.50334,34.39417H398.23056l-13.261-33.97871Zm0-41.024V93.56712h11.46427a4.55881,4.55881,0,0,0,3.03907-.76077,4.00519,4.00519,0,0,0,.82957-2.96893V68.01363a4.01535,4.01535,0,0,0-.82957-2.97028,4.57513,4.57513,0,0,0-3.03907-.75942Z"/><path class="cls-2" d="M423.29272,52.129h15.88461v87.15761H423.29272Z"/><path class="cls-2" d="M480.8923,52.129h14.50334v87.15761H480.47819L461.831,81.5498v57.73683H447.18877V52.129h15.3329l18.37063,56.90725Z"/><path class="cls-2" d="M549.81721,52.129V64.28393H534.48565v75.0027H518.601V64.28393h-15.194V52.129Z"/><path class="cls-2" d="M610.06248,95.61749,557.82864,80.38181V62.97113l72.00374,22.67108v19.58747l-72.00374,23.21484V111.03383Z"/></svg>