<?xml version="1.0" encoding="utf-8"?>
<!-- Generator: Adobe Illustrator 26.0.1, SVG Export Plug-In . SVG Version: 6.00 Build 0)  -->
<svg version="1.1" id="Layer_1" xmlns="http://www.w3.org/2000/svg" xmlns:xlink="http://www.w3.org/1999/xlink" x="0px" y="0px"
	 viewBox="0 0 638.7 221" style="enable-background:new 0 0 638.7 221;" xml:space="preserve">
<style type="text/css">
	.st0{fill:none;stroke:#FFFFFF;stroke-width:2.0719;stroke-miterlimit:10;}
	.st1{fill:#FFFFFF;}
</style>
<path class="st0" d="M81.9,80.4L29.7,95.6L81.9,111v17.4l-72-23.2V85.6l72-22.7V80.4z"/>
<path class="st0" d="M89.9,52.1h33.2c10,0,15.1,4.6,15.1,13.7v59.8c0,9.1-5,13.7-15.1,13.7H89.9V52.1z M122.1,124V67.5
	c0.1-1.1-0.2-2.1-0.8-3c-0.9-0.6-2-0.9-3-0.8h-12.4v64h12.4c1.1,0.1,2.1-0.2,3-0.8C121.9,126.1,122.2,125,122.1,124L122.1,124z"/>
<path class="st0" d="M161.2,71.5h14.6c9.9,0,14.9,4.6,14.9,13.7v24.7h-29.4v14c-0.1,1.1,0.1,2.1,0.8,3c0.5,0.5,1.5,0.8,3.1,0.8h6.4
	c1.1,0.1,2.1-0.2,3-0.8c0.7-0.8,1-1.9,0.8-3v-5.1h15.2v6.9c0,9.1-5,13.7-15.1,13.7h-14.4c-10,0-15.1-4.6-15.1-13.7V85.1
	C146.1,76,151.2,71.5,161.2,71.5z M161.3,99.8h14.4v-13c0.1-1.1-0.2-2.1-0.8-3c-0.9-0.6-2-0.9-3-0.8h-6.6c-1.1-0.1-2.1,0.2-3,0.8
	c-0.7,0.8-1,1.9-0.8,3L161.3,99.8z"/>
<path class="st0" d="M214.4,71.5l8.7,53.2l8.7-53.2h15.6l-14,67.8h-20.7l-14-67.8L214.4,71.5z"/>
<path class="st1" d="M284.7,123.4v-18.6c0.1-1.1-0.2-2.1-0.8-3c-0.9-0.6-2-0.9-3-0.8h-11.2c-9.5,0-14.2-4.6-14.2-13.8V65.8
	c0-9.1,5-13.7,14.9-13.7h15.2c9.9,0,14.9,4.6,14.9,13.7V78h-16V68c0.1-1.1-0.2-2.1-0.8-3c-0.9-0.6-2-0.9-3-0.8h-5.2
	c-1.1-0.1-2.2,0.1-3.2,0.8c-0.7,0.8-1,1.9-0.8,3v17.5c-0.1,1.1,0.2,2.1,0.8,3c0.9,0.6,2.1,0.9,3.2,0.8h10.9
	c9.7,0,14.5,4.5,14.5,13.5v22.8c0,9.1-5,13.7-15.1,13.7h-14.9c-10,0-15.1-4.6-15.1-13.7v-12h15.9v9.8c-0.1,1.1,0.2,2.1,0.8,3
	c0.9,0.6,2.1,0.9,3.2,0.8h5.2c1.1,0.1,2.1-0.2,3-0.8C284.5,125.5,284.8,124.5,284.7,123.4z"/>
<path class="st1" d="M308.7,52.1h32c10,0,15.1,4.6,15.1,13.7v27.8c0,9.1-5,13.7-15.1,13.7h-16.2v32h-15.9V52.1z M339.9,91.4V68
	c0.1-1.1-0.2-2.1-0.8-3c-0.9-0.6-2-0.9-3-0.8h-11.5v30.8h11.5c1.1,0.1,2.1-0.2,3-0.8C339.8,93.5,340.1,92.4,339.9,91.4L339.9,91.4z"
	/>
<path class="st1" d="M379.7,105.3v34h-15.9V52.1h32c10,0,15.1,4.6,15.1,13.7v25.8c0,7.6-3.4,12-10.1,13.3l14.5,34.4h-17.1l-13.3-34
	L379.7,105.3z M379.7,64.3v29.3h11.5c1.1,0.1,2.1-0.2,3-0.8c0.7-0.8,1-1.9,0.8-3V68c0.1-1.1-0.2-2.1-0.8-3c-0.9-0.6-2-0.9-3-0.8
	L379.7,64.3z"/>
<path class="st1" d="M423.3,52.1h15.9v87.2h-15.9V52.1z"/>
<path class="st1" d="M480.9,52.1h14.5v87.2h-14.9l-18.6-57.7v57.7h-14.6V52.1h15.3l18.4,56.9V52.1z"/>
<path class="st1" d="M549.8,52.1v12.2h-15.3v75h-15.9v-75h-15.2V52.1H549.8z"/>
<path class="st1" d="M610.1,95.6l-52.2-15.2V63l72,22.7v19.6l-72,23.2V111L610.1,95.6z"/>
</svg>
